<svg width="220" height="220" viewBox="0 0 220 220" fill="none" xmlns="http://www.w3.org/2000/svg">
<path d="M205.562 120.312C204.187 118.25 202.125 116.875 199.375 116.875C184.25 116.875 169.812 123.75 160.875 136.125L154.687 144.375C147.125 153.312 135.437 158.125 123.75 158.125H103.125C98.9998 158.125 96.2498 155.375 96.2498 151.25C96.2498 147.125 98.9998 144.375 103.125 144.375H116.187C127.187 144.375 137.5 135.438 137.5 124.438V123.75C137.5 120.312 134.062 116.875 130.625 116.875H88.6872C63.9373 116.875 43.9998 127.875 32.9998 145.75L14.4373 174.625C13.0623 176.687 13.0623 179.437 14.4373 181.5L35.0623 215.875C35.7498 217.25 37.8123 218.625 39.1873 219.312C39.8748 219.312 39.8748 219.312 40.5623 219.312C41.9373 219.312 43.3123 218.625 44.6873 217.938C70.8123 200.75 101.062 191.812 132 191.812C154.687 191.812 175.312 179.438 186.312 159.5L204.875 126.5C206.25 125.125 206.25 122.375 205.562 120.312Z" fill="#74C7EB"/>
<path d="M30.9375 123.75C31.625 123.75 33 123.75 33.6875 123.75C41.9375 116.187 52.25 110.688 63.25 107.25C62.5625 103.813 61.875 99.6875 61.875 96.25C61.875 66 86.625 41.25 116.875 41.25C147.125 41.25 171.875 66 171.875 96.25C171.875 101.062 171.188 105.875 169.813 110.688C178.75 105.875 189.062 103.125 199.375 103.125C204.187 103.125 209 105.187 212.437 107.937C213.125 103.812 213.125 100.375 213.125 96.25C213.125 88.6875 212.438 81.125 210.375 73.5625C209.688 70.125 206.25 68.0625 202.812 68.0625C194.562 69.4375 186.313 65.3125 182.188 57.75C178.062 50.875 178.75 41.25 183.563 35.0625C185.625 32.3125 185.625 28.1875 182.875 26.125C171.875 15.8125 158.812 8.25 144.375 4.125C140.938 3.4375 137.5 4.8125 136.125 8.25C132.687 15.8125 125.125 20.625 116.875 20.625C108.625 20.625 101.062 15.8125 97.625 8.25C96.25 4.8125 92.8125 2.75 89.375 4.125C74.9375 8.25 61.875 15.8125 50.875 26.8125C48.125 28.875 48.125 33 50.1875 35.75C55 42.625 55.6875 51.5625 51.5625 58.4375C47.4375 65.3125 39.1875 69.4375 30.9375 68.75C27.5 68.0625 24.0625 70.8125 23.375 74.25C21.3125 81.125 20.625 88.6875 20.625 96.25C20.625 103.813 21.3125 111.375 23.375 118.937C24.0625 122.375 27.5 124.438 30.9375 123.75Z" fill="#74C7EB"/>
</svg>
