<svg width="220" height="220" viewBox="0 0 220 220" fill="none" xmlns="http://www.w3.org/2000/svg">
<path d="M33 187V179.667H51.3326V168.667H40.3326V161.333H51.3326V150.333H33V143H51.3326V132H40.3326V124.667H51.3326V113.667H33V106.333H51.3326V95.3326H40.3326V88H51.3326V77H33V69.6674H51.3326V58.6674H40.3326V51.3326H51.3326V40.3326H33V33H51.3326V22H22V198H51.3326V187H33Z" fill="#74C7EB"/>
<path d="M176 51.3326H171.853L190.824 32.3686L180.453 22L118.221 84.2182L102.665 89.4036L107.851 73.8496L130.365 51.3348H66V168.667H139.333V198H176C188.146 198 198 188.153 198 176V73.3326C198 61.1798 188.146 51.3326 176 51.3326ZM99 113.667V146.667H88V102.667H176V113.667H99ZM176 183.333H154V168.667H176C180.046 168.667 183.333 171.945 183.333 176C183.333 180.055 180.046 183.333 176 183.333Z" fill="#74C7EB"/>
</svg>
