<svg width="220" height="220" viewBox="0 0 220 220" fill="none" xmlns="http://www.w3.org/2000/svg">
<path d="M179.231 21.0117H174.934V141.763H179.231V21.0117Z" fill="#E4EBED"/>
<path d="M182.669 58.2226V143.516C182.657 143.967 182.48 144.398 182.17 144.727L139.348 187.55C139.185 187.711 138.992 187.839 138.779 187.924C138.567 188.01 138.339 188.052 138.11 188.048H44.6273L47.4375 203.973C47.7249 205.571 48.5631 207.017 49.8066 208.062C51.0501 209.106 52.6201 209.681 54.2438 209.687C54.653 209.686 55.0614 209.649 55.4641 209.576L198.602 183.588C200.412 183.265 202.02 182.239 203.075 180.733C204.13 179.227 204.545 177.365 204.23 175.553L183.52 58.1453L182.669 58.2226Z" fill="#40BDFF"/>
<path d="M139.855 182.162L176.808 145.209H139.855V182.162Z" fill="#EFFAFE"/>
<path d="M204.23 175.553L183.52 58.1453L182.66 58.2226V77.6703L199.925 175.544C200.24 177.356 199.824 179.218 198.77 180.724C197.715 182.23 196.106 183.257 194.296 183.58L52.2414 209.361C52.8903 209.559 53.5651 209.661 54.2437 209.662C54.653 209.66 55.0614 209.623 55.464 209.55L198.602 183.588C200.412 183.265 202.02 182.239 203.075 180.733C204.13 179.227 204.545 177.365 204.23 175.553V175.553Z" fill="#2197F7"/>
<path d="M172.511 145.209L139.855 177.865V182.162L176.808 145.209H172.511Z" fill="#E4EBED"/>
<path d="M22.6015 188.461H36.4804L39.325 204.626C39.765 207.125 41.0705 209.389 43.0127 211.021C44.9548 212.654 47.4097 213.551 49.9468 213.555C50.5835 213.556 51.219 213.501 51.8461 213.391L199.272 187.395C202.091 186.894 204.597 185.296 206.24 182.95C207.883 180.605 208.53 177.704 208.037 174.883L183.098 33.5156V19.2929C183.098 18.7231 182.872 18.1767 182.469 17.7738C182.066 17.3709 181.52 17.1445 180.95 17.1445H56.6672C56.1604 14.1539 54.6112 11.4393 52.2941 9.4819C49.977 7.52445 47.0418 6.45056 44.0086 6.45056C40.9754 6.45056 38.0401 7.52445 35.723 9.4819C33.406 11.4393 31.8568 14.1539 31.35 17.1445H22.6015C19.7373 17.1468 16.991 18.2856 14.9656 20.311C12.9403 22.3363 11.8015 25.0826 11.7992 27.9468V177.659C11.8015 180.523 12.9403 183.269 14.9656 185.294C16.991 187.32 19.7373 188.459 22.6015 188.461V188.461ZM182.445 145.011C182.828 144.606 183.046 144.073 183.055 143.516V58.2226L203.758 175.63C204.055 177.331 203.665 179.079 202.674 180.492C201.683 181.905 200.172 182.867 198.473 183.167L51.0984 209.155C50.2571 209.303 49.3948 209.284 48.5607 209.099C47.7266 208.915 46.9371 208.567 46.2372 208.077C45.5374 207.587 44.9409 206.964 44.4818 206.244C44.0227 205.523 43.7101 204.719 43.5617 203.878L40.8461 188.461H138.127C138.697 188.461 139.244 188.235 139.648 187.834L182.445 145.011ZM140.25 181.105V145.612H175.742L140.25 181.105ZM44.0086 10.7422C45.9046 10.754 47.7434 11.3926 49.2387 12.5583C50.734 13.7241 51.8018 15.3516 52.2758 17.1875H35.7328C36.2071 15.3502 37.2762 13.7216 38.7732 12.5557C40.2703 11.3898 42.1111 10.7521 44.0086 10.7422V10.7422ZM16.0961 27.9297C16.1142 26.2155 16.8073 24.5775 18.0251 23.3709C19.2429 22.1644 20.8872 21.4865 22.6015 21.4843H31.1953V40.7086C31.066 42.4759 31.3024 44.251 31.8899 45.9228C32.4774 47.5947 33.4033 49.1275 34.6097 50.4255C35.8162 51.7234 37.2773 52.7587 38.9019 53.4667C40.5264 54.1746 42.2794 54.54 44.0515 54.54C45.8236 54.54 47.5767 54.1746 49.2012 53.4667C50.8257 52.7587 52.2869 51.7234 53.4933 50.4255C54.6998 49.1275 55.6257 47.5947 56.2132 45.9228C56.8007 44.251 57.0371 42.4759 56.9078 40.7086V30.0093C56.9078 29.4395 56.6814 28.8931 56.2785 28.4902C55.8756 28.0873 55.3292 27.8609 54.7593 27.8609C54.1895 27.8609 53.6431 28.0873 53.2402 28.4902C52.8373 28.8931 52.6109 29.4395 52.6109 30.0093V40.7086C52.7175 41.8971 52.5755 43.0948 52.1938 44.2253C51.8121 45.3559 51.1991 46.3946 50.3939 47.2753C49.5887 48.156 48.6089 48.8593 47.517 49.3405C46.425 49.8217 45.2448 50.0702 44.0515 50.0702C42.8583 50.0702 41.6781 49.8217 40.5861 49.3405C39.4941 48.8593 38.5144 48.156 37.7092 47.2753C36.904 46.3946 36.291 45.3559 35.9093 44.2253C35.5276 43.0948 35.3855 41.8971 35.4922 40.7086V21.4843H178.802V141.341H138.136C137.566 141.341 137.02 141.568 136.617 141.971C136.214 142.374 135.987 142.92 135.987 143.49V184.164H22.6015C20.8769 184.162 19.2235 183.476 18.004 182.256C16.7845 181.037 16.0983 179.383 16.0961 177.659V27.9297Z" fill="#263238"/>
<path d="M50.7031 70.7523H161.356C161.926 70.7523 162.473 70.526 162.875 70.1231C163.278 69.7201 163.505 69.1737 163.505 68.6039C163.505 68.0341 163.278 67.4876 162.875 67.0847C162.473 66.6818 161.926 66.4554 161.356 66.4554H50.7031C50.1333 66.4554 49.5869 66.6818 49.1839 67.0847C48.781 67.4876 48.5547 68.0341 48.5547 68.6039C48.5547 69.1737 48.781 69.7201 49.1839 70.1231C49.5869 70.526 50.1333 70.7523 50.7031 70.7523V70.7523Z" fill="#263238"/>
<path d="M33.5156 87.9398H161.356C161.926 87.9398 162.473 87.7135 162.875 87.3106C163.278 86.9076 163.505 86.3612 163.505 85.7914C163.505 85.2216 163.278 84.6751 162.875 84.2722C162.473 83.8693 161.926 83.6429 161.356 83.6429H33.5156C32.9458 83.6429 32.3994 83.8693 31.9964 84.2722C31.5935 84.6751 31.3672 85.2216 31.3672 85.7914C31.3672 86.3612 31.5935 86.9076 31.9964 87.3106C32.3994 87.7135 32.9458 87.9398 33.5156 87.9398V87.9398Z" fill="#263238"/>
<path d="M33.5156 105.127H161.356C161.926 105.127 162.473 104.901 162.875 104.498C163.278 104.095 163.505 103.549 163.505 102.979C163.505 102.409 163.278 101.863 162.875 101.46C162.473 101.057 161.926 100.83 161.356 100.83H33.5156C32.9458 100.83 32.3994 101.057 31.9964 101.46C31.5935 101.863 31.3672 102.409 31.3672 102.979C31.3672 103.549 31.5935 104.095 31.9964 104.498C32.3994 104.901 32.9458 105.127 33.5156 105.127V105.127Z" fill="#263238"/>
<path d="M33.5156 122.315H161.356C161.926 122.315 162.473 122.088 162.875 121.686C163.278 121.283 163.505 120.736 163.505 120.166C163.505 119.597 163.278 119.05 162.875 118.647C162.473 118.244 161.926 118.018 161.356 118.018H33.5156C32.9458 118.018 32.3994 118.244 31.9964 118.647C31.5935 119.05 31.3672 119.597 31.3672 120.166C31.3672 120.736 31.5935 121.283 31.9964 121.686C32.3994 122.088 32.9458 122.315 33.5156 122.315Z" fill="#263238"/>
<path d="M33.5156 139.502H120.914C121.484 139.502 122.03 139.276 122.433 138.873C122.836 138.47 123.062 137.924 123.062 137.354C123.062 136.784 122.836 136.238 122.433 135.835C122.03 135.432 121.484 135.205 120.914 135.205H33.5156C32.9458 135.205 32.3994 135.432 31.9965 135.835C31.5935 136.238 31.3672 136.784 31.3672 137.354C31.3672 137.924 31.5935 138.47 31.9965 138.873C32.3994 139.276 32.9458 139.502 33.5156 139.502V139.502Z" fill="#263238"/>
<path d="M33.5156 156.69H120.914C121.484 156.69 122.03 156.463 122.433 156.061C122.836 155.658 123.062 155.111 123.062 154.541C123.062 153.972 122.836 153.425 122.433 153.022C122.03 152.619 121.484 152.393 120.914 152.393H33.5156C32.9458 152.393 32.3994 152.619 31.9964 153.022C31.5935 153.425 31.3672 153.972 31.3672 154.541C31.3672 155.111 31.5935 155.658 31.9964 156.061C32.3994 156.463 32.9458 156.69 33.5156 156.69Z" fill="#263238"/>
<path d="M33.5156 173.877H120.914C121.484 173.877 122.03 173.651 122.433 173.248C122.836 172.845 123.062 172.299 123.062 171.729C123.062 171.159 122.836 170.613 122.433 170.21C122.03 169.807 121.484 169.58 120.914 169.58H33.5156C32.9458 169.58 32.3994 169.807 31.9964 170.21C31.5935 170.613 31.3672 171.159 31.3672 171.729C31.3672 172.299 31.5935 172.845 31.9964 173.248C32.3994 173.651 32.9458 173.877 33.5156 173.877V173.877Z" fill="#263238"/>
<path d="M25.1195 198.516H21.682V195.078C21.682 194.85 21.5915 194.632 21.4303 194.47C21.2691 194.309 21.0506 194.219 20.8226 194.219C20.5947 194.219 20.3761 194.309 20.215 194.47C20.0538 194.632 19.9633 194.85 19.9633 195.078V198.516H16.5258C16.2978 198.516 16.0793 198.606 15.9181 198.767C15.7569 198.928 15.6664 199.147 15.6664 199.375C15.6664 199.603 15.7569 199.822 15.9181 199.983C16.0793 200.144 16.2978 200.234 16.5258 200.234H19.9633V203.672C19.9633 203.9 20.0538 204.118 20.215 204.28C20.3761 204.441 20.5947 204.531 20.8226 204.531C21.0506 204.531 21.2691 204.441 21.4303 204.28C21.5915 204.118 21.682 203.9 21.682 203.672V200.234H25.1195C25.3474 200.234 25.566 200.144 25.7272 199.983C25.8883 199.822 25.9789 199.603 25.9789 199.375C25.9789 199.147 25.8883 198.928 25.7272 198.767C25.566 198.606 25.3474 198.516 25.1195 198.516Z" fill="#FFDD00"/>
<path d="M207.109 87.0804H203.672V83.6429C203.672 83.415 203.581 83.1964 203.42 83.0353C203.259 82.8741 203.04 82.7836 202.812 82.7836C202.585 82.7836 202.366 82.8741 202.205 83.0353C202.044 83.1964 201.953 83.415 201.953 83.6429V87.0804H198.516C198.288 87.0804 198.069 87.171 197.908 87.3321C197.747 87.4933 197.656 87.7119 197.656 87.9398C197.656 88.1677 197.747 88.3863 197.908 88.5475C198.069 88.7087 198.288 88.7992 198.516 88.7992H201.953V92.2367C201.953 92.4646 202.044 92.6832 202.205 92.8444C202.366 93.0055 202.585 93.0961 202.812 93.0961C203.04 93.0961 203.259 93.0055 203.42 92.8444C203.581 92.6832 203.672 92.4646 203.672 92.2367V88.7992H207.109C207.337 88.7992 207.556 88.7087 207.717 88.5475C207.878 88.3863 207.969 88.1677 207.969 87.9398C207.969 87.7119 207.878 87.4933 207.717 87.3321C207.556 87.171 207.337 87.0804 207.109 87.0804Z" fill="#40BDFF"/>
<path d="M199.916 206.327C198.897 206.327 197.9 206.025 197.052 205.458C196.204 204.892 195.543 204.087 195.153 203.144C194.762 202.202 194.66 201.165 194.859 200.165C195.058 199.165 195.549 198.246 196.27 197.525C196.991 196.804 197.91 196.313 198.91 196.114C199.911 195.915 200.947 196.017 201.89 196.407C202.832 196.798 203.637 197.459 204.204 198.306C204.77 199.154 205.073 200.151 205.073 201.171C205.073 202.539 204.529 203.85 203.562 204.817C202.595 205.784 201.284 206.327 199.916 206.327V206.327ZM199.916 197.734C199.237 197.734 198.572 197.935 198.007 198.313C197.441 198.691 197.001 199.228 196.741 199.856C196.48 200.484 196.412 201.175 196.545 201.842C196.678 202.509 197.005 203.121 197.486 203.602C197.966 204.083 198.579 204.41 199.246 204.543C199.913 204.675 200.604 204.607 201.232 204.347C201.86 204.087 202.397 203.646 202.775 203.081C203.152 202.516 203.354 201.851 203.354 201.171C203.354 200.259 202.992 199.385 202.347 198.74C201.702 198.096 200.828 197.734 199.916 197.734Z" fill="#FFDD00"/>
<path d="M199.057 28.5828C198.037 28.5828 197.04 28.2804 196.192 27.7138C195.344 27.1472 194.684 26.3419 194.293 25.3997C193.903 24.4575 193.801 23.4208 194 22.4206C194.199 21.4204 194.69 20.5016 195.411 19.7805C196.132 19.0594 197.051 18.5683 198.051 18.3693C199.051 18.1704 200.088 18.2725 201.03 18.6628C201.972 19.053 202.778 19.7139 203.344 20.5619C203.911 21.4098 204.213 22.4067 204.213 23.4265C204.213 24.794 203.67 26.1056 202.703 27.0725C201.736 28.0395 200.425 28.5828 199.057 28.5828V28.5828ZM199.057 19.989C198.377 19.989 197.713 20.1906 197.147 20.5683C196.582 20.9461 196.141 21.4829 195.881 22.111C195.621 22.7392 195.553 23.4303 195.686 24.0971C195.818 24.764 196.146 25.3765 196.626 25.8572C197.107 26.3379 197.72 26.6653 198.386 26.798C199.053 26.9306 199.744 26.8625 200.372 26.6024C201.001 26.3422 201.537 25.9016 201.915 25.3363C202.293 24.771 202.495 24.1064 202.495 23.4265C202.495 22.5148 202.132 21.6405 201.488 20.9958C200.843 20.3512 199.969 19.989 199.057 19.989Z" fill="#FFDD00"/>
</svg>
